<svg width="425" height="112" viewBox="0 0 425 112" fill="none" xmlns="http://www.w3.org/2000/svg">
<mask id="path-1-outside-1_15_42" maskUnits="userSpaceOnUse" x="118" y="17" width="299" height="95" fill="black">
<rect fill="white" x="118" y="17" width="299" height="95"/>
<path d="M145.197 89.164C130.744 89.164 119.88 78.009 119.88 64.332C119.88 49.879 130.356 39.306 144.712 39.306C151.114 39.306 156.934 42.119 160.814 46.387L160.911 18.645H170.514V64.332C170.514 78.397 159.553 89.164 145.197 89.164ZM145.197 80.143C154.121 80.143 160.911 72.965 160.911 64.235C160.911 55.602 154.121 48.424 145.197 48.424C136.37 48.424 129.483 55.602 129.483 64.235C129.483 72.965 136.37 80.143 145.197 80.143ZM190.963 31.061C187.471 31.061 184.658 28.248 184.658 24.756C184.658 21.264 187.471 18.354 190.963 18.354C194.455 18.354 197.171 21.264 197.171 24.756C197.171 28.248 194.455 31.061 190.963 31.061ZM186.21 40.47H195.813V88H186.21V40.47ZM232.893 110.989C222.611 110.989 214.075 106.527 209.71 98.088L217.761 93.723C220.574 98.864 225.812 102.162 232.699 102.162C242.69 102.162 249.48 94.984 249.48 83.829V80.046C246.376 84.993 240.556 88.679 232.602 88.679C219.119 88.679 208.449 78.009 208.449 64.041C208.449 50.461 219.313 39.306 233.766 39.306C248.122 39.306 259.083 49.976 259.083 64.138V83.732C259.083 100.222 248.025 110.989 232.893 110.989ZM233.669 79.658C242.399 79.658 249.383 72.674 249.383 63.944C249.383 55.214 242.399 48.424 233.669 48.424C225.036 48.424 217.955 55.214 217.955 63.944C217.955 72.674 225.036 79.658 233.669 79.658ZM279.532 31.061C276.04 31.061 273.227 28.248 273.227 24.756C273.227 21.264 276.04 18.354 279.532 18.354C283.024 18.354 285.74 21.264 285.74 24.756C285.74 28.248 283.024 31.061 279.532 31.061ZM274.779 40.47H284.382V88H274.779V40.47ZM321.657 89.261C309.823 89.261 303.518 81.792 303.518 70.928V48.812H294.109V40.47H303.518V28.151H313.121V40.47H331.357V48.812H313.121V70.637C313.121 76.845 316.807 80.531 322.53 80.531C325.634 80.531 329.029 79.367 331.357 77.718V86.545C328.932 88.194 325.149 89.261 321.657 89.261ZM363.602 89.164C349.828 89.164 339.74 77.912 339.74 64.138C339.74 50.558 350.604 39.306 365.057 39.306C379.413 39.306 390.374 49.976 390.374 64.138V88H381.256V79.658C377.667 85.478 371.362 89.164 363.602 89.164ZM365.057 80.046C373.981 80.046 380.771 72.868 380.771 64.235C380.771 55.505 373.981 48.327 365.057 48.327C356.23 48.327 349.343 55.505 349.343 64.235C349.343 72.868 356.23 80.046 365.057 80.046ZM406.07 18.645H415.673V88H406.07V18.645Z"/>
</mask>
<path d="M145.197 89.164C130.744 89.164 119.88 78.009 119.88 64.332C119.88 49.879 130.356 39.306 144.712 39.306C151.114 39.306 156.934 42.119 160.814 46.387L160.911 18.645H170.514V64.332C170.514 78.397 159.553 89.164 145.197 89.164ZM145.197 80.143C154.121 80.143 160.911 72.965 160.911 64.235C160.911 55.602 154.121 48.424 145.197 48.424C136.37 48.424 129.483 55.602 129.483 64.235C129.483 72.965 136.37 80.143 145.197 80.143ZM190.963 31.061C187.471 31.061 184.658 28.248 184.658 24.756C184.658 21.264 187.471 18.354 190.963 18.354C194.455 18.354 197.171 21.264 197.171 24.756C197.171 28.248 194.455 31.061 190.963 31.061ZM186.21 40.47H195.813V88H186.21V40.47ZM232.893 110.989C222.611 110.989 214.075 106.527 209.71 98.088L217.761 93.723C220.574 98.864 225.812 102.162 232.699 102.162C242.69 102.162 249.48 94.984 249.48 83.829V80.046C246.376 84.993 240.556 88.679 232.602 88.679C219.119 88.679 208.449 78.009 208.449 64.041C208.449 50.461 219.313 39.306 233.766 39.306C248.122 39.306 259.083 49.976 259.083 64.138V83.732C259.083 100.222 248.025 110.989 232.893 110.989ZM233.669 79.658C242.399 79.658 249.383 72.674 249.383 63.944C249.383 55.214 242.399 48.424 233.669 48.424C225.036 48.424 217.955 55.214 217.955 63.944C217.955 72.674 225.036 79.658 233.669 79.658ZM279.532 31.061C276.04 31.061 273.227 28.248 273.227 24.756C273.227 21.264 276.04 18.354 279.532 18.354C283.024 18.354 285.74 21.264 285.74 24.756C285.74 28.248 283.024 31.061 279.532 31.061ZM274.779 40.47H284.382V88H274.779V40.47ZM321.657 89.261C309.823 89.261 303.518 81.792 303.518 70.928V48.812H294.109V40.47H303.518V28.151H313.121V40.47H331.357V48.812H313.121V70.637C313.121 76.845 316.807 80.531 322.53 80.531C325.634 80.531 329.029 79.367 331.357 77.718V86.545C328.932 88.194 325.149 89.261 321.657 89.261ZM363.602 89.164C349.828 89.164 339.74 77.912 339.74 64.138C339.74 50.558 350.604 39.306 365.057 39.306C379.413 39.306 390.374 49.976 390.374 64.138V88H381.256V79.658C377.667 85.478 371.362 89.164 363.602 89.164ZM365.057 80.046C373.981 80.046 380.771 72.868 380.771 64.235C380.771 55.505 373.981 48.327 365.057 48.327C356.23 48.327 349.343 55.505 349.343 64.235C349.343 72.868 356.23 80.046 365.057 80.046ZM406.07 18.645H415.673V88H406.07V18.645Z" fill="#0B090A"/>
<path d="M160.814 46.387L160.074 47.0597L161.805 48.9637L161.814 46.3905L160.814 46.387ZM160.911 18.645V17.645H159.914L159.911 18.6415L160.911 18.645ZM170.514 18.645H171.514V17.645H170.514V18.645ZM145.197 88.164C131.291 88.164 120.88 77.4517 120.88 64.332H118.88C118.88 78.5663 130.197 90.164 145.197 90.164V88.164ZM120.88 64.332C120.88 50.4235 130.916 40.306 144.712 40.306V38.306C129.796 38.306 118.88 49.3345 118.88 64.332H120.88ZM144.712 40.306C150.821 40.306 156.376 42.992 160.074 47.0597L161.554 45.7143C157.492 41.246 151.407 38.306 144.712 38.306V40.306ZM161.814 46.3905L161.911 18.6485L159.911 18.6415L159.814 46.3835L161.814 46.3905ZM160.911 19.645H170.514V17.645H160.911V19.645ZM169.514 18.645V64.332H171.514V18.645H169.514ZM169.514 64.332C169.514 77.827 159.019 88.164 145.197 88.164V90.164C160.087 90.164 171.514 78.967 171.514 64.332H169.514ZM145.197 81.143C154.697 81.143 161.911 73.4931 161.911 64.235H159.911C159.911 72.4369 153.545 79.143 145.197 79.143V81.143ZM161.911 64.235C161.911 55.0699 154.693 47.424 145.197 47.424V49.424C153.549 49.424 159.911 56.1341 159.911 64.235H161.911ZM145.197 47.424C135.802 47.424 128.483 55.0658 128.483 64.235H130.483C130.483 56.1382 136.938 49.424 145.197 49.424V47.424ZM128.483 64.235C128.483 73.4972 135.798 81.143 145.197 81.143V79.143C136.942 79.143 130.483 72.4328 130.483 64.235H128.483ZM186.21 40.47V39.47H185.21V40.47H186.21ZM195.813 40.47H196.813V39.47H195.813V40.47ZM195.813 88V89H196.813V88H195.813ZM186.21 88H185.21V89H186.21V88ZM190.963 30.061C188.023 30.061 185.658 27.6957 185.658 24.756H183.658C183.658 28.8003 186.919 32.061 190.963 32.061V30.061ZM185.658 24.756C185.658 21.7963 188.043 19.354 190.963 19.354V17.354C186.899 17.354 183.658 20.7317 183.658 24.756H185.658ZM190.963 19.354C193.863 19.354 196.171 21.7757 196.171 24.756H198.171C198.171 20.7523 195.047 17.354 190.963 17.354V19.354ZM196.171 24.756C196.171 27.7161 193.882 30.061 190.963 30.061V32.061C195.027 32.061 198.171 28.7799 198.171 24.756H196.171ZM186.21 41.47H195.813V39.47H186.21V41.47ZM194.813 40.47V88H196.813V40.47H194.813ZM195.813 87H186.21V89H195.813V87ZM187.21 88V40.47H185.21V88H187.21ZM209.71 98.088L209.234 97.2089L208.372 97.6763L208.822 98.5474L209.71 98.088ZM217.761 93.723L218.639 93.243L218.16 92.3691L217.285 92.8439L217.761 93.723ZM249.48 80.046H250.48V76.5708L248.633 79.5145L249.48 80.046ZM232.893 109.989C222.911 109.989 214.76 105.674 210.599 97.6286L208.822 98.5474C213.391 107.38 222.312 111.989 232.893 111.989V109.989ZM210.187 98.9671L218.238 94.6021L217.285 92.8439L209.234 97.2089L210.187 98.9671ZM216.884 94.203C219.879 99.6757 225.46 103.162 232.699 103.162V101.162C226.165 101.162 221.27 98.0523 218.639 93.243L216.884 94.203ZM232.699 103.162C237.945 103.162 242.417 101.271 245.571 97.8573C248.719 94.4503 250.48 89.6087 250.48 83.829H248.48C248.48 89.2043 246.847 93.5292 244.102 96.5C241.363 99.464 237.444 101.162 232.699 101.162V103.162ZM250.48 83.829V80.046H248.48V83.829H250.48ZM248.633 79.5145C245.719 84.1598 240.224 87.679 232.602 87.679V89.679C240.888 89.679 247.034 85.8262 250.327 80.5775L248.633 79.5145ZM232.602 87.679C219.685 87.679 209.449 77.4698 209.449 64.041H207.449C207.449 78.5482 218.554 89.679 232.602 89.679V87.679ZM209.449 64.041C209.449 51.0209 219.858 40.306 233.766 40.306V38.306C218.769 38.306 207.449 49.9011 207.449 64.041H209.449ZM233.766 40.306C247.591 40.306 258.083 50.5486 258.083 64.138H260.083C260.083 49.4034 248.654 38.306 233.766 38.306V40.306ZM258.083 64.138V83.732H260.083V64.138H258.083ZM258.083 83.732C258.083 91.7482 255.4 98.3006 250.948 102.844C246.497 107.388 240.216 109.989 232.893 109.989V111.989C240.703 111.989 247.516 109.206 252.377 104.244C257.238 99.2819 260.083 92.2058 260.083 83.732H258.083ZM233.669 80.658C242.952 80.658 250.383 73.2263 250.383 63.944H248.383C248.383 72.1217 241.847 78.658 233.669 78.658V80.658ZM250.383 63.944C250.383 54.6455 242.935 47.424 233.669 47.424V49.424C241.863 49.424 248.383 55.7825 248.383 63.944H250.383ZM233.669 47.424C224.504 47.424 216.955 54.6415 216.955 63.944H218.955C218.955 55.7864 225.568 49.424 233.669 49.424V47.424ZM216.955 63.944C216.955 73.2303 224.488 80.658 233.669 80.658V78.658C225.585 78.658 218.955 72.1177 218.955 63.944H216.955ZM274.779 40.47V39.47H273.779V40.47H274.779ZM284.382 40.47H285.382V39.47H284.382V40.47ZM284.382 88V89H285.382V88H284.382ZM274.779 88H273.779V89H274.779V88ZM279.532 30.061C276.592 30.061 274.227 27.6957 274.227 24.756H272.227C272.227 28.8003 275.488 32.061 279.532 32.061V30.061ZM274.227 24.756C274.227 21.7963 276.612 19.354 279.532 19.354V17.354C275.468 17.354 272.227 20.7317 272.227 24.756H274.227ZM279.532 19.354C282.432 19.354 284.74 21.7757 284.74 24.756H286.74C286.74 20.7523 283.616 17.354 279.532 17.354V19.354ZM284.74 24.756C284.74 27.7161 282.452 30.061 279.532 30.061V32.061C283.597 32.061 286.74 28.7799 286.74 24.756H284.74ZM274.779 41.47H284.382V39.47H274.779V41.47ZM283.382 40.47V88H285.382V40.47H283.382ZM284.382 87H274.779V89H284.382V87ZM275.779 88V40.47H273.779V88H275.779ZM303.518 48.812H304.518V47.812H303.518V48.812ZM294.109 48.812H293.109V49.812H294.109V48.812ZM294.109 40.47V39.47H293.109V40.47H294.109ZM303.518 40.47V41.47H304.518V40.47H303.518ZM303.518 28.151V27.151H302.518V28.151H303.518ZM313.121 28.151H314.121V27.151H313.121V28.151ZM313.121 40.47H312.121V41.47H313.121V40.47ZM331.357 40.47H332.357V39.47H331.357V40.47ZM331.357 48.812V49.812H332.357V48.812H331.357ZM313.121 48.812V47.812H312.121V48.812H313.121ZM331.357 77.718H332.357V75.7842L330.779 76.902L331.357 77.718ZM331.357 86.545L331.919 87.3719L332.357 87.0743V86.545H331.357ZM321.657 88.261C315.957 88.261 311.706 86.4684 308.875 83.4808C306.037 80.4846 304.518 76.1708 304.518 70.928H302.518C302.518 76.5492 304.151 81.4019 307.423 84.8562C310.704 88.3191 315.523 90.261 321.657 90.261V88.261ZM304.518 70.928V48.812H302.518V70.928H304.518ZM303.518 47.812H294.109V49.812H303.518V47.812ZM295.109 48.812V40.47H293.109V48.812H295.109ZM294.109 41.47H303.518V39.47H294.109V41.47ZM304.518 40.47V28.151H302.518V40.47H304.518ZM303.518 29.151H313.121V27.151H303.518V29.151ZM312.121 28.151V40.47H314.121V28.151H312.121ZM313.121 41.47H331.357V39.47H313.121V41.47ZM330.357 40.47V48.812H332.357V40.47H330.357ZM331.357 47.812H313.121V49.812H331.357V47.812ZM312.121 48.812V70.637H314.121V48.812H312.121ZM312.121 70.637C312.121 73.9384 313.104 76.6822 314.959 78.6061C316.818 80.5336 319.449 81.531 322.53 81.531V79.531C319.888 79.531 317.814 78.6854 316.399 77.2179C314.98 75.7468 314.121 73.5436 314.121 70.637H312.121ZM322.53 81.531C325.85 81.531 329.445 80.2975 331.935 78.534L330.779 76.902C328.612 78.4365 325.418 79.531 322.53 79.531V81.531ZM330.357 77.718V86.545H332.357V77.718H330.357ZM330.794 85.7181C328.563 87.2355 324.984 88.261 321.657 88.261V90.261C325.313 90.261 329.3 89.1525 331.919 87.3719L330.794 85.7181ZM390.374 88V89H391.374V88H390.374ZM381.256 88H380.256V89H381.256V88ZM381.256 79.658H382.256V76.1312L380.405 79.1331L381.256 79.658ZM363.602 88.164C350.442 88.164 340.74 77.4232 340.74 64.138H338.74C338.74 78.4008 349.215 90.164 363.602 90.164V88.164ZM340.74 64.138C340.74 51.1128 351.154 40.306 365.057 40.306V38.306C350.055 38.306 338.74 50.0032 338.74 64.138H340.74ZM365.057 40.306C378.882 40.306 389.374 50.5486 389.374 64.138H391.374C391.374 49.4034 379.945 38.306 365.057 38.306V40.306ZM389.374 64.138V88H391.374V64.138H389.374ZM390.374 87H381.256V89H390.374V87ZM382.256 88V79.658H380.256V88H382.256ZM380.405 79.1331C377.003 84.6503 371.024 88.164 363.602 88.164V90.164C371.7 90.164 378.332 86.3057 382.108 80.1829L380.405 79.1331ZM365.057 81.046C374.554 81.046 381.771 73.4001 381.771 64.235H379.771C379.771 72.3359 373.409 79.046 365.057 79.046V81.046ZM381.771 64.235C381.771 54.9769 374.558 47.327 365.057 47.327V49.327C373.405 49.327 379.771 56.0331 379.771 64.235H381.771ZM365.057 47.327C355.658 47.327 348.343 54.9728 348.343 64.235H350.343C350.343 56.0372 356.803 49.327 365.057 49.327V47.327ZM348.343 64.235C348.343 73.4042 355.662 81.046 365.057 81.046V79.046C356.799 79.046 350.343 72.3318 350.343 64.235H348.343ZM406.07 18.645V17.645H405.07V18.645H406.07ZM415.673 18.645H416.673V17.645H415.673V18.645ZM415.673 88V89H416.673V88H415.673ZM406.07 88H405.07V89H406.07V88ZM406.07 19.645H415.673V17.645H406.07V19.645ZM414.673 18.645V88H416.673V18.645H414.673ZM415.673 87H406.07V89H415.673V87ZM407.07 88V18.645H405.07V88H407.07Z" fill="black" mask="url(#path-1-outside-1_15_42)"/>
<rect width="104" height="112" rx="6" fill="#0A2463"/>
<path d="M44.0267 88H30.2527V17.869H44.0267V58.609H48.5857C49.0707 57.736 49.6527 56.863 50.3317 55.99L63.6207 39.985H80.0137L60.0317 63.847L79.9167 88H63.5237L50.2347 71.704C49.5557 70.831 48.9737 69.861 48.4887 68.891H44.0267V88Z" fill="white"/>
</svg>
